# xmcd
#
# Track frame offsets:
#	150
#	13561
#	24488
#	38140
#	53745
#	64971
#	77710
#	91666
#	105696
#	119167
#
# Disc length: 1861 seconds
#
# Revision: 0
# Processed by: cddbd v1.4PL0 Copyright (c) Steve Scherf et al.
# Submitted via: OrangeCD 4.1
#
DISCID=7a07430a
DTITLE=Don Francisco - Brother Of The Son
DYEAR=1900
DGENRE=
TTITLE0=Brother of the Son
TTITLE1=Who You Gonna Listen To?
TTITLE2=Closer to Jesus
TTITLE3=I Found the Answer
TTITLE4=Voyage to Gennesaret
TTITLE5=Holy Roll
TTITLE6=The Day of the Lord
TTITLE7=Got to Tell the Story
TTITLE8=No Condemnation
TTITLE9=Come and Follow
EXTD=
EXTT0=
EXTT1=
EXTT2=
EXTT3=
EXTT4=
EXTT5=
EXTT6=
EXTT7=
EXTT8=
EXTT9=
PLAYORDER=
